<svg viewBox="181.7632 102.261 241.0848 45.47" xmlns="http://www.w3.org/2000/svg">
  <path d="M 195.688 135.071 C 196.118 135.361 196.568 135.651 197.038 135.931 C 199.218 137.211 201.648 138.131 204.308 138.691 C 206.968 139.251 209.558 139.381 212.078 139.091 C 214.598 138.801 216.868 138.161 218.898 137.191 C 220.928 136.211 222.648 134.931 224.048 133.321 C 225.448 131.721 226.358 129.881 226.788 127.821 C 227.218 125.761 227.118 123.711 226.478 121.681 C 226.348 121.251 226.188 120.831 226.018 120.421 C 212.068 118.701 199.418 124.811 195.678 135.081" style="fill:#8ec640"/>
  <path d="M 194.318 135.751 C 196.008 137.231 198.018 138.441 200.368 139.391 C 202.718 140.341 205.248 140.901 207.968 141.061 C 210.688 141.231 212.538 141.161 214.988 140.511 C 217.438 139.861 219.038 137.971 220.908 136.711 C 221.798 136.111 222.088 135.031 222.818 134.311 C 217.718 128.061 210.798 124.811 200.678 124.191 C 196.658 123.941 192.778 124.321 189.208 125.211 C 189.178 127.101 189.578 128.911 190.418 130.651 C 191.338 132.571 192.648 134.261 194.328 135.741" style="fill:#006838"/>
  <path d="M 249.418 126.581 C 243.818 118.781 239.468 110.921 235.808 103.121 L 245.168 103.121 C 247.218 108.551 250.068 113.941 253.558 119.371 C 256.998 113.941 259.638 108.561 261.628 103.121 L 270.718 103.121 C 267.108 110.981 262.808 118.831 257.378 126.691 L 257.378 141.701 L 249.418 141.701 L 249.418 126.581 Z M 279.338 126.901 L 290.798 126.901 C 289.128 121.951 287.248 116.951 285.098 111.941 C 282.888 116.941 281.008 121.951 279.338 126.901 M 295.208 141.701 C 294.508 139.011 293.698 136.271 292.898 133.521 L 277.238 133.521 C 276.428 136.261 275.678 139.011 274.978 141.701 L 266.528 141.701 C 270.398 128.791 275.028 115.931 280.728 103.121 L 289.658 103.121 C 295.358 115.821 300.098 128.681 303.918 141.701 L 295.198 141.701 L 295.208 141.701 Z M 342.448 125.501 C 342.448 138.311 335.398 142.561 324.368 142.561 C 314.788 142.561 305.378 138.961 305.378 122.381 C 305.378 104.901 315.768 102.261 324.378 102.261 C 334.758 102.261 341.108 106.081 341.858 115.121 L 333.898 115.121 C 333.418 111.351 331.318 109.041 324.588 109.041 C 317.218 109.041 313.448 111.841 313.448 122.441 C 313.448 133.581 317.538 135.781 324.428 135.781 C 332.278 135.781 334.488 133.301 334.488 127.601 L 325.558 127.601 L 325.558 120.981 L 342.448 120.981 L 342.448 125.501 Z M 356.928 109.741 L 356.928 119.911 L 364.088 119.911 C 370.488 119.911 372.638 119.261 372.638 114.421 C 372.638 110.551 371.288 109.741 364.568 109.741 L 356.928 109.741 Z M 348.968 103.121 L 365.698 103.121 C 373.718 103.121 380.708 103.341 380.708 114.691 C 380.708 122.221 377.588 125.021 373.178 126.041 L 383.238 141.701 L 373.558 141.701 L 364.088 126.531 L 356.928 126.531 L 356.928 141.701 L 348.968 141.701 L 348.968 103.121 Z M 404.548 135.781 C 409.928 135.781 414.768 134.701 414.768 122.171 C 414.768 112.321 411.758 109.041 404.058 109.041 C 396.898 109.041 393.678 111.891 393.678 122.601 C 393.678 133.311 397.228 135.781 404.548 135.781 M 404.118 102.261 C 413.318 102.261 422.848 105.221 422.848 122.381 C 422.848 139.541 413.648 142.561 404.288 142.561 C 394.438 142.561 385.618 138.961 385.618 122.381 C 385.608 104.901 395.408 102.261 404.118 102.261 M 207.758 139.901 C 198.098 139.901 190.268 132.071 190.268 122.411 C 190.268 112.751 198.098 104.921 207.758 104.921 C 217.418 104.921 225.248 112.751 225.248 122.411 C 225.248 132.071 217.418 139.901 207.758 139.901 M 225.908 114.801 C 224.868 112.381 223.438 110.271 221.628 108.481 C 219.828 106.691 217.708 105.271 215.288 104.221 C 212.868 103.171 210.288 102.651 207.548 102.651 C 204.808 102.651 202.218 103.181 199.808 104.221 C 197.388 105.271 195.288 106.691 193.498 108.481 C 191.718 110.271 190.298 112.381 189.248 114.801 C 188.198 117.221 187.678 119.811 187.678 122.551 C 187.678 125.291 188.198 127.881 189.248 130.301 C 189.938 131.901 190.798 133.361 191.808 134.681 L 181.788 144.311 C 181.788 144.311 181.518 145.151 182.758 146.401 C 183.998 147.651 185.068 147.731 185.068 147.731 L 195.118 138.081 C 196.518 139.201 198.078 140.141 199.798 140.881 C 202.218 141.931 204.798 142.451 207.538 142.451 C 210.278 142.451 212.858 141.931 215.278 140.881 C 217.698 139.831 219.808 138.411 221.618 136.621 C 223.418 134.831 224.848 132.721 225.898 130.301 C 226.948 127.881 227.468 125.291 227.468 122.551 C 227.468 119.811 226.948 117.221 225.898 114.801" class="cls-3" style="fill: rgb(35, 31, 32);"/>
</svg>